<?xml version="1.0" encoding="UTF-8"?>
<!DOCTYPE svg PUBLIC "-//W3C//DTD SVG 1.1//EN" "http://www.w3.org/Graphics/SVG/1.1/DTD/svg11.dtd">
<!-- Creator: CorelDRAW 2018 (64 Bit) -->
<svg xmlns="http://www.w3.org/2000/svg" xml:space="preserve" width="318.124mm" height="340.36mm" version="1.1" style="shape-rendering:geometricPrecision; text-rendering:geometricPrecision; image-rendering:optimizeQuality; fill-rule:evenodd; clip-rule:evenodd"
viewBox="0 0 262785.44 281153.6"
 xmlns:xlink="http://www.w3.org/1999/xlink">
 <defs>
  <style type="text/css">
   <![CDATA[
    .fil0 {fill:#D5E0EF}
   ]]>
  </style>
 </defs>
 <g id="Conteúdo_x0020_do_x0020_PowerClip">
  <metadata id="CorelCorpID_0Corel-Layer"/>
  <path class="fil0" d="M35072.06 236067.28c-2521.59,-2990.7 -4987.84,-6126.38 -7647.88,-9701.92 -2660.04,-3575.55 -5513.53,-7590.88 -8051.23,-11398.05 -2537.62,-3807.17 -4759.35,-7406.09 -7036.6,-11807.19 -2277.25,-4401.01 -4610.17,-9604.2 -6262.92,-13684.38 -1652.59,-4080.26 -2625.1,-7037.34 -3467,-10452.55 -841.99,-3415.21 -1553.46,-7288.13 -2017.46,-10695.99 -463.99,-3407.86 -680.75,-6350.57 -552.54,-9801.22 128.29,-3450.65 601.36,-7409.48 1286.65,-10926.21 685.54,-3516.65 1583.28,-6591.36 2886.54,-9731.17 1303.25,-3139.97 3012.02,-6344.87 4826.84,-9328.8 1814.99,-2984.01 3736.21,-5747.06 5956.05,-8474.34 2219.84,-2727.36 4738.62,-5418.87 7172.98,-7722.72 2434.53,-2304.01 4784.88,-4220.19 7263.68,-6102.09 2478.72,-1881.9 5085.81,-3729.44 7458.63,-5358.98 2372.9,-1629.46 4511.37,-3040.6 7064.19,-4591.67 2552.73,-1551.15 5520.14,-3242.07 8392.56,-4773.89 2872.66,-1531.82 5650.33,-2904.55 8362.41,-4360.87 2712,-1456.32 5358.16,-2996.16 7944.67,-4353.68 2586.68,-1357.77 5113.48,-2533.16 7405.18,-3642.04 2291.79,-1108.8 4347.98,-2150.94 6248.88,-3476.92 1901.07,-1325.89 3646.5,-2935.69 5231.36,-4469.82 1584.94,-1534.22 3009.37,-2992.85 4319.4,-4446.12 1310.11,-1453.43 2505.9,-2901.57 3677.64,-4466.02 1171.83,-1564.62 2319.71,-3245.79 3347.47,-4713.92 1027.77,-1468.05 1935.35,-2723.4 2919,-4139.9 983.74,-1416.59 2043.56,-2994.59 3507.73,-5262.83 1464.42,-2268.41 3333.1,-5227.14 5466.04,-8495.07 2133.02,-3267.93 4530.37,-6845.29 7042.71,-10276.19 2512.34,-3430.99 5139.67,-6715.76 8042.64,-9929.5 2903.14,-3213.9 6081.86,-6356.93 8677.71,-8584.61 2595.85,-2227.85 4608.68,-3540.44 6545.52,-4691.7 1937,-1151.18 3797.75,-2140.95 5694.44,-2955.93 1896.85,-815.14 3829.31,-1455.41 5611.17,-1943.36 1781.95,-487.78 3412.98,-823.32 4916.3,-1041.4 1503.41,-218.08 2879.27,-318.94 4820.48,-238.48 1941.21,80.37 4447.77,342.15 6981.42,853.31 2533.9,510.99 5094.65,1271.53 8058.92,2459.14 2964.27,1187.61 6332.15,2802.12 9797.09,4712.6 3465.19,1910.23 7027.51,4116.11 10297.67,6230.46 3270.16,2114.27 6248.39,4136.93 8705.05,5926.72 2456.66,1789.8 4392.01,3346.81 6501.4,5189.97 2109.48,1842.99 4392.92,3971.97 6911.95,6507.93 2519.2,2535.88 5273.73,5478.84 8135.24,8794.26 2861.59,3315.51 5829.99,7003.72 8694.81,10925.71 2864.81,3921.99 5625.96,8077.83 8548.1,13105.16 2922.22,5027.41 6005.28,10926.29 8273.28,16197.46 2268.08,5271.17 3720.76,9914.71 4832.46,13608.3 1111.78,3693.5 1882.64,6437.22 2642.53,10221.43 760.05,3784.04 1509.35,8608.65 1920.89,13089.87 411.54,4481.14 485.39,8618.89 138.45,13899.57 -346.86,5280.67 -1114.42,11704.43 -2156.56,17413.41 -1041.89,5708.89 -2358.53,10703.42 -3744.06,15007.87 -1385.53,4304.2 -2840.36,7918.32 -4954.71,12457.62 -2114.35,4539.05 -4888.55,10003.35 -8254.28,15661.86 -3365.56,5658.75 -7322.66,11511.88 -11677.33,17203.75 -4354.51,5692.04 -9106.43,11223.09 -13964.66,16532.84 -4858.07,5309.91 -9822.36,10398.78 -15725.46,15735.21 -5902.93,5336.6 -12744.75,10920.76 -17725.32,14719.67 -4980.65,3799.07 -8100.14,5812.65 -13021.56,8482.35 -4921.42,2669.62 -11644.95,5995.2 -17032.68,8286.99 -5387.56,2292.03 -9439.57,3550.43 -12574.67,4425.88 -3135.01,875.44 -5352.95,1368.02 -8098.32,1835.48 -2745.45,467.54 -6018.08,909.73 -9086.19,1225.03 -3068.1,315.22 -5931.68,503.23 -9382.49,375.11 -3450.65,-128.2 -7488.45,-572.86 -10483.86,-1025.46 -2995.25,-452.59 -4947.78,-913.2 -6923.43,-1338.77 -1975.82,-425.41 -3974.77,-815.8 -6783.66,-1719.75 -2808.73,-903.78 -6427.31,-2320.94 -10277.1,-4182.52 -3849.63,-1861.58 -7930.3,-4167.49 -11663.79,-6526.68 -3733.32,-2358.94 -7119.62,-4771.08 -10319.06,-7161.09 -3199.28,-2389.92 -6212.04,-4757.62 -8842.42,-7155.39 -2630.13,-2397.77 -4877.97,-4825.35 -7290.28,-7462.18 -2412.31,-2636.83 -4989.08,-5482.72 -7510.59,-8473.59z"/>
 </g>
</svg>
